<svg width="47" height="39" viewBox="0 0 47 39" fill="none" xmlns="http://www.w3.org/2000/svg">
<path fill-rule="evenodd" clip-rule="evenodd" d="M17.3633 0.516411C19.9313 0.421799 22.4872 0.91056 24.839 1.94595C27.1909 2.98134 29.2774 4.53642 30.9417 6.49427C32.4376 8.25398 33.5575 10.2979 34.2358 12.5H35.9999C38.4438 12.5016 40.8183 13.317 42.7473 14.8176C44.6763 16.3181 46.0506 18.4183 46.6534 20.7867C47.2562 23.1551 47.0532 25.6568 46.0763 27.8969C45.0994 30.1371 43.4043 31.9882 41.2586 33.158C40.7737 33.4223 40.1663 33.2435 39.9019 32.7586C39.6376 32.2737 39.8163 31.6663 40.3013 31.402C42.0569 30.4449 43.4438 28.9304 44.243 27.0975C45.0423 25.2646 45.2084 23.2178 44.7152 21.28C44.222 19.3422 43.0975 17.6239 41.5193 16.3962C39.941 15.1685 37.9988 14.5013 35.9993 14.5H33.4799C33.024 14.5 32.6259 14.1916 32.5118 13.7503C31.9442 11.5551 30.8864 9.51715 29.4179 7.78964C27.9494 6.06212 26.1083 4.68999 24.0332 3.77641C21.958 2.86283 19.7028 2.43157 17.437 2.51505C15.1712 2.59854 12.9538 3.19459 10.9515 4.2584C8.94917 5.32221 7.21409 6.82609 5.87667 8.65699C4.53925 10.4879 3.6343 12.5982 3.22984 14.8291C2.82538 17.0601 2.93195 19.3538 3.54153 21.5376C4.15111 23.7215 5.24783 25.7388 6.74926 27.4378C7.11497 27.8516 7.07596 28.4836 6.66211 28.8493C6.24827 29.215 5.61631 29.176 5.25059 28.7622C3.54898 26.8366 2.30602 24.5504 1.61516 22.0753C0.924311 19.6003 0.803535 17.0008 1.26192 14.4724C1.7203 11.9439 2.74592 9.55229 4.26166 7.47727C5.7774 5.40226 7.74382 3.69785 10.0131 2.4922C12.2824 1.28655 14.7954 0.611023 17.3633 0.516411ZM24.3828 18.5759C24.2649 18.527 24.1356 18.5 24 18.5C23.8642 18.5 23.7346 18.5271 23.6166 18.5761C23.4989 18.6249 23.3886 18.6972 23.2929 18.7929L23.2923 18.7935L15.2929 26.7929C14.9024 27.1834 14.9024 27.8166 15.2929 28.2071C15.6834 28.5976 16.3166 28.5976 16.7071 28.2071L23 21.9142V37.5C23 38.0523 23.4477 38.5 24 38.5C24.5523 38.5 25 38.0523 25 37.5V21.9142L31.2929 28.2071C31.6834 28.5976 32.3166 28.5976 32.7071 28.2071C33.0976 27.8166 33.0976 27.1834 32.7071 26.7929L24.7071 18.7929C24.6112 18.697 24.5007 18.6247 24.3828 18.5759Z" fill="#999999"/>
</svg>
